<svg id="visual" viewBox="0 0 1920 1080" width="1920" height="1080" xmlns="http://www.w3.org/2000/svg" xmlns:xlink="http://www.w3.org/1999/xlink" version="1.1"><rect x="0" y="0" width="1920" height="1080" fill="#fff"></rect><defs><linearGradient id="grad1_0" x1="43.8%" y1="100%" x2="100%" y2="0%"><stop offset="14.444444444444446%" stop-color="#ffffff" stop-opacity="1"></stop><stop offset="85.55555555555554%" stop-color="#ffffff" stop-opacity="1"></stop></linearGradient></defs><defs><linearGradient id="grad2_0" x1="0%" y1="100%" x2="56.3%" y2="0%"><stop offset="14.444444444444446%" stop-color="#ffffff" stop-opacity="1"></stop><stop offset="85.55555555555554%" stop-color="#ffffff" stop-opacity="1"></stop></linearGradient></defs><g transform="translate(1920, 1080)"><path d="M-702 0C-650.4 -73 -598.8 -146.1 -573.7 -237.6C-548.7 -329.2 -550.2 -439.3 -496.4 -496.4C-442.6 -553.5 -333.4 -557.5 -241.5 -583C-149.5 -608.4 -74.8 -655.2 0 -702L0 0Z" fill="#F2E3D5"></path></g><g transform="translate(0, 0)"><path d="M702 0C666 78.1 630 156.1 604.2 250.3C578.4 344.4 562.9 454.7 496.4 496.4C429.9 538.1 312.4 511.2 221.2 534C130 556.8 65 629.4 0 702L0 0Z" fill="#F2E3D5"></path></g></svg>